<svg xmlns="http://www.w3.org/2000/svg" viewBox="0 0 240 240">
  <!-- Background -->
  <circle cx="120" cy="120" r="110" fill="#f8f8f8" stroke="#e0e0e0" stroke-width="2"/>
  
  <!-- Three Overlapping Hearts forming a circle -->
  <!-- Heart 1 (Left) -->
  <path d="M95,80 
           C95,65 85,55 75,55 
           C65,55 55,65 55,80 
           C55,105 95,130 95,130" 
        fill="#FF6B6B" fill-opacity="0.9"/>
  
  <!-- Heart 2 (Right) -->
  <path d="M145,80 
           C145,65 155,55 165,55 
           C175,55 185,65 185,80 
           C185,105 145,130 145,130" 
        fill="#5D9CEC" fill-opacity="0.9"/>
  
  <!-- Heart 3 (Bottom) -->
  <path d="M95,160 
           C95,145 105,135 120,135 
           C135,135 145,145 145,160 
           C145,185 120,200 120,200 
           C120,200 95,185 95,160" 
        fill="#FFD700" fill-opacity="0.9"/>
  
  <!-- Central Gift Box -->
  <rect x="100" y="95" width="40" height="40" fill="white" rx="5" ry="5" stroke="#e0e0e0" stroke-width="2"/>
  <rect x="100" y="95" width="40" height="8" fill="#f0f0f0" rx="5" ry="5" stroke="#e0e0e0" stroke-width="1"/>
  
  <!-- Ribbon -->
  <rect x="117" y="75" width="6" height="80" fill="#FF8E8E"/>
  <rect x="85" y="112" width="70" height="6" fill="#FF8E8E"/>
  
  <!-- Bow -->
  <ellipse cx="120" cy="80" rx="10" ry="6" fill="#FF8E8E" transform="rotate(-30 120 80)"/>
  <ellipse cx="120" cy="80" rx="10" ry="6" fill="#FF8E8E" transform="rotate(30 120 80)"/>
  
  <!-- People Silhouettes (Simplified) -->
  <!-- Top Person -->
  <circle cx="120" cy="35" r="8" fill="#8BC34A"/>
  <path d="M115,42 L115,55 C115,58 125,58 125,55 L125,42" fill="#8BC34A"/>
  
  <!-- Left Person -->
  <circle cx="45" cy="120" r="8" fill="#9C27B0"/>
  <path d="M40,127 L40,140 C40,143 50,143 50,140 L50,127" fill="#9C27B0"/>
  
  <!-- Right Person -->
  <circle cx="195" cy="120" r="8" fill="#FF9800"/>
  <path d="M190,127 L190,140 C190,143 200,143 200,140 L200,127" fill="#FF9800"/>
  
  <!-- Bottom Person -->
  <circle cx="120" cy="205" r="8" fill="#00BCD4"/>
  <path d="M115,212 L115,225 C115,228 125,228 125,225 L125,212" fill="#00BCD4"/>
  
  <!-- Connection Lines (Dotted) -->
  <path d="M120,50 C100,70 85,85 75,85" stroke="#dddddd" stroke-width="2" stroke-dasharray="4" fill="none"/>
  <path d="M120,50 C140,70 155,85 165,85" stroke="#dddddd" stroke-width="2" stroke-dasharray="4" fill="none"/>
  <path d="M54,120 C74,120 90,110 100,95" stroke="#dddddd" stroke-width="2" stroke-dasharray="4" fill="none"/>
  <path d="M186,120 C166,120 150,110 140,95" stroke="#dddddd" stroke-width="2" stroke-dasharray="4" fill="none"/>
  <path d="M120,198 C110,178 105,170 105,160" stroke="#dddddd" stroke-width="2" stroke-dasharray="4" fill="none"/>
  <path d="M120,198 C130,178 135,170 135,160" stroke="#dddddd" stroke-width="2" stroke-dasharray="4" fill="none"/>
  
  <!-- Small Stars (representing celebration) -->
  <path d="M40,40 L42,46 L36,42 L44,42 L38,46 Z" fill="#FFD700"/>
  <path d="M200,40 L202,46 L196,42 L204,42 L198,46 Z" fill="#FFD700"/>
  <path d="M40,200 L42,206 L36,202 L44,202 L38,206 Z" fill="#FFD700"/>
  <path d="M200,200 L202,206 L196,202 L204,202 L198,206 Z" fill="#FFD700"/>
</svg>